<svg aria-hidden="true" style="position: absolute; width: 0; height: 0; overflow: hidden;" version="1.1" xmlns="http://www.w3.org/2000/svg" xmlns:xlink="http://www.w3.org/1999/xlink">
  <defs>
  
    <symbol id="add" viewBox="0 0 24 24">
      <title>add</title>
      <path d="M18.984 12.984h-6v6h-1.969v-6h-6v-1.969h6v-6h1.969v6h6v1.969z"></path>
    </symbol>

    <symbol id="arrow_left" viewBox="0 0 24 24">
      <title>arrow_left</title>
      <path d="M20.016 11.016v1.969h-12.188l5.578 5.625-1.406 1.406-8.016-8.016 8.016-8.016 1.406 1.406-5.578 5.625h12.188z"></path>
    </symbol>

    <symbol id="arrow_down" viewBox="0 0 24 24">
      <title>arrow_down</title>
      <path d="M20.016 12l-8.016 8.016-8.016-8.016 1.453-1.406 5.578 5.578v-12.188h1.969v12.188l5.625-5.578z"></path>
    </symbol><symbol id="qed" viewBox="0 0 24 24">
      <title>qed</title>
      <path d="M17.766 5.484l5.438 6.516-5.438 6.516-1.547-1.266 4.359-5.25-4.359-5.25zM11.016 12.984v-1.969h1.969v1.969h-1.969zM17.016 11.016v1.969h-2.016v-1.969h2.016zM6.984 12.984v-1.969h2.016v1.969h-2.016zM7.781 6.75l-4.359 5.25 4.359 5.25-1.547 1.266-5.438-6.516 5.438-6.516z"></path>
    </symbol>

    <symbol id="arrow_right" viewBox="0 0 24 24">
      <title>arrow_right</title>
      <path d="M12 3.984l8.016 8.016-8.016 8.016-1.406-1.406 5.578-5.625h-12.188v-1.969h12.188l-5.578-5.625z"></path>
    </symbol>

    <symbol id="arrow_up" viewBox="0 0 24 24">
      <title>arrow_up</title>
      <path d="M3.984 12l8.016-8.016 8.016 8.016-1.453 1.406-5.578-5.578v12.188h-1.969v-12.188l-5.625 5.578z"></path>
    </symbol>

    <symbol id="cancel" viewBox="0 0 24 24">
      <title>cancel</title>
      <path d="M17.016 15.609l-3.609-3.609 3.609-3.609-1.406-1.406-3.609 3.609-3.609-3.609-1.406 1.406 3.609 3.609-3.609 3.609 1.406 1.406 3.609-3.609 3.609 3.609zM12 2.016c5.531 0 9.984 4.453 9.984 9.984s-4.453 9.984-9.984 9.984-9.984-4.453-9.984-9.984 4.453-9.984 9.984-9.984z"></path>
    </symbol>

    <symbol id="check" viewBox="0 0 24 24">
      <title>check</title>
      <path d="M9 16.172l10.594-10.594 1.406 1.406-12 12-5.578-5.578 1.406-1.406z"></path>
    </symbol>

    <symbol id="check_box" viewBox="0 0 24 24">
      <title>check_box</title>
      <path d="M9.984 17.016l9-9-1.406-1.453-7.594 7.594-3.563-3.563-1.406 1.406zM18.984 3c1.125 0 2.016 0.938 2.016 2.016v13.969c0 1.078-0.891 2.016-2.016 2.016h-13.969c-1.125 0-2.016-0.938-2.016-2.016v-13.969c0-1.078 0.891-2.016 2.016-2.016h13.969z"></path>
    </symbol>
    
    <symbol id="check_box_checked" viewBox="0 0 24 24">
      <title>check_box_checked</title>
      <path d="M19 5v14H5V5h14m0-2H5c-1.1 0-2 .9-2 2v14c0 1.1.9 2 2 2h14c1.1 0 2-.9 2-2V5c0-1.1-.9-2-2-2z"/>
      <path d="M16.979 7.431l-6.59 6.59-3.59-3.58-1.41 1.41 5 5 8-8z"/>
    </symbol>

    <symbol id="check_box_outline_blank" viewBox="0 0 24 24">
      <title>check_box_outline_blank</title>
      <path d="M18.984 3c1.078 0 2.016 0.938 2.016 2.016v13.969c0 1.078-0.938 2.016-2.016 2.016h-13.969c-1.078 0-2.016-0.938-2.016-2.016v-13.969c0-1.078 0.938-2.016 2.016-2.016h13.969zM18.984 5.016h-13.969v13.969h13.969v-13.969z"></path>
    </symbol>   

    <symbol id="check_small" viewBox="0 0 24 24">
      <title>check_small</title>
      <path d="M16.979 7.431l-6.59 6.59-3.59-3.58-1.41 1.41 5 5 8-8z"/>
    </symbol>   

    <symbol id="chevron_down" viewBox="0 0 24 24">
      <title>chevron_down</title> 
      <path d="M16.594 8.578l1.406 1.406-6 6-6-6 1.406-1.406 4.594 4.594z"></path>
    </symbol>

    <symbol id="chevron_left" viewBox="0 0 24 24">
      <title>chevron_left</title>
      <path d="M15.422 7.406l-4.594 4.594 4.594 4.594-1.406 1.406-6-6 6-6z"></path>
    </symbol>

    <symbol id="chevron_right" viewBox="0 0 24 24">
      <title>chevron_right</title>
      <path d="M9.984 6l6 6-6 6-1.406-1.406 4.594-4.594-4.594-4.594z"></path>
    </symbol>

    <symbol id="chevron_up" viewBox="0 0 24 24">
      <title>chevron_up</title>
      <path d="M12 8.016l6 6-1.406 1.406-4.594-4.594-4.594 4.594-1.406-1.406z"></path>
    </symbol>

    <symbol id="close" viewBox="0 0 24 24">
      <title>close</title>
      <path d="M19 6.41L17.59 5 12 10.59 6.41 5 5 6.41 10.59 12 5 17.59 6.41 19 12 13.41 17.59 19 19 17.59 13.41 12z" />
    </symbol>
    
    <symbol id="code" viewBox="0 0 24 24">
      <title>code</title>
      <path d="M14.578 16.594l4.641-4.594-4.641-4.594 1.406-1.406 6 6-6 6zM9.422 16.594l-1.406 1.406-6-6 6-6 1.406 1.406-4.641 4.594z"></path>
    </symbol>

    <symbol id="contract" viewBox="0 0 24 24">
      <title>contract</title>
      <path d="M16.594 5.391l-4.594 4.594-4.594-4.594 1.406-1.406 3.188 3.188 3.188-3.188zM7.406 18.609l4.594-4.594 4.594 4.594-1.406 1.406-3.188-3.188-3.188 3.188z"></path>
    </symbol>

    <symbol id="copy" viewBox="0 0 24 24">
      <title>copy</title>
      <path d="M18.984 21v-14.016h-10.969v14.016h10.969zM18.984 5.016c1.078 0 2.016 0.891 2.016 1.969v14.016c0 1.078-0.938 2.016-2.016 2.016h-10.969c-1.078 0-2.016-0.938-2.016-2.016v-14.016c0-1.078 0.938-1.969 2.016-1.969h10.969zM15.984 0.984v2.016h-12v14.016h-1.969v-14.016c0-1.078 0.891-2.016 1.969-2.016h12z"></path>
    </symbol>

    <symbol id="delete" viewBox="0 0 24 24">
      <title>delete</title>
      <path d="M18.984 3.984v2.016h-13.969v-2.016h3.469l1.031-0.984h4.969l1.031 0.984h3.469zM6 18.984v-12h12v12c0 1.078-0.938 2.016-2.016 2.016h-7.969c-1.078 0-2.016-0.938-2.016-2.016z"></path>
    </symbol>

    <symbol id="drop_down" viewBox="0 0 24 24">
      <title>drop_down</title>
      <path d="M6.984 9.984h10.031l-5.016 5.016z"></path>
    </symbol>

    <symbol id="drop_up" viewBox="0 0 24 24">
      <title>drop_up</title>
      <path d="M6.984 14.016l5.016-5.016 5.016 5.016h-10.031z"></path>
    </symbol>

    <symbol id="edit" viewBox="0 0 24 24">
      <title>edit</title>
      <path d="M20.719 7.031l-1.828 1.828-3.75-3.75 1.828-1.828c0.375-0.375 1.031-0.375 1.406 0l2.344 2.344c0.375 0.375 0.375 1.031 0 1.406zM3 17.25l11.063-11.063 3.75 3.75-11.063 11.063h-3.75v-3.75z"></path>
    </symbol>

    <symbol id="expand" viewBox="0 0 24 24">
      <title>expand</title>
      <path d="M12 18.188l3.188-3.188 1.406 1.406-4.594 4.594-4.594-4.594 1.406-1.406zM12 5.813l-3.188 3.188-1.406-1.406 4.594-4.594 4.594 4.594-1.406 1.406z"></path>
    </symbol>  

    <symbol id="heart" viewBox="0 0 24 24">
      <title>heart</title>
      <path d="M12 21.328l-1.453-1.313c-5.156-4.688-8.531-7.734-8.531-11.531 0-3.094 2.391-5.484 5.484-5.484 1.734 0 3.422 0.844 4.5 2.109 1.078-1.266 2.766-2.109 4.5-2.109 3.094 0 5.484 2.391 5.484 5.484 0 3.797-3.375 6.891-8.531 11.578z"></path>
    </symbol>

    <symbol id="heart_outline" viewBox="0 0 24 24">
      <title>heart_outline</title>
      <path d="M12.094 18.563c4.781-4.313 7.922-7.172 7.922-10.078 0-2.016-1.5-3.469-3.516-3.469-1.547 0-3.047 0.984-3.563 2.344h-1.875c-0.516-1.359-2.016-2.344-3.563-2.344-2.016 0-3.516 1.453-3.516 3.469 0 2.906 3.141 5.766 7.922 10.078l0.094 0.094zM16.5 3c3.094 0 5.484 2.391 5.484 5.484 0 3.797-3.375 6.844-8.531 11.531l-1.453 1.313-1.453-1.266c-5.156-4.688-8.531-7.781-8.531-11.578 0-3.094 2.391-5.484 5.484-5.484 1.734 0 3.422 0.844 4.5 2.109 1.078-1.266 2.766-2.109 4.5-2.109z"></path>
    </symbol>  

    <symbol id="home" viewBox="0 0 24 24">
      <title>home</title>
      <path d="M9.984 20.016h-4.969v-8.016h-3l9.984-9 9.984 9h-3v8.016h-4.969v-6h-4.031v6z"></path>
    </symbol>

    <symbol id="keyboard_return" viewBox="0 0 24 24">
      <title>keyboard_return</title>
      <path fill="none" d="M0 0h24v24H0V0z"/>
      <path d="M19 7v4H5.83l3.58-3.59L8 6l-6 6 6 6 1.41-1.41L5.83 13H21V7h-2z"/>
    </symbol>

    <symbol id="menu" viewBox="0 0 24 24">
      <title>menu</title>
      <path d="M3 6h18v2.016h-18v-2.016zM3 12.984v-1.969h18v1.969h-18zM3 18v-2.016h18v2.016h-18z"></path>
    </symbol>

    <symbol id="more_horiz" viewBox="0 0 24 24">
      <title>more_horiz</title>
      <path d="M12 9.984c1.078 0 2.016 0.938 2.016 2.016s-0.938 2.016-2.016 2.016-2.016-0.938-2.016-2.016 0.938-2.016 2.016-2.016zM18 9.984c1.078 0 2.016 0.938 2.016 2.016s-0.938 2.016-2.016 2.016-2.016-0.938-2.016-2.016 0.938-2.016 2.016-2.016zM6 9.984c1.078 0 2.016 0.938 2.016 2.016s-0.938 2.016-2.016 2.016-2.016-0.938-2.016-2.016 0.938-2.016 2.016-2.016z"></path>
    </symbol>

    <symbol id="more_vert" viewBox="0 0 24 24">
      <title>more_vert</title>
      <path d="M12 15.984c1.078 0 2.016 0.938 2.016 2.016s-0.938 2.016-2.016 2.016-2.016-0.938-2.016-2.016 0.938-2.016 2.016-2.016zM12 9.984c1.078 0 2.016 0.938 2.016 2.016s-0.938 2.016-2.016 2.016-2.016-0.938-2.016-2.016 0.938-2.016 2.016-2.016zM12 8.016c-1.078 0-2.016-0.938-2.016-2.016s0.938-2.016 2.016-2.016 2.016 0.938 2.016 2.016-0.938 2.016-2.016 2.016z"></path>
    </symbol>

    <symbol id="notifications" viewBox="0 0 24 24">
      <title>notifications</title>
      <path d="M18 15.984l2.016 2.016v0.984h-16.031v-0.984l2.016-2.016v-4.969c0-3.094 1.641-5.625 4.5-6.328v-0.703c0-0.844 0.656-1.5 1.5-1.5s1.5 0.656 1.5 1.5v0.703c2.859 0.703 4.5 3.281 4.5 6.328v4.969zM12 21.984c-1.125 0-2.016-0.891-2.016-1.969h4.031c0 1.078-0.938 1.969-2.016 1.969z"></path>
    </symbol>

    <symbol id="notifications_active" viewBox="0 0 24 24">
      <title>notifications_active</title>
      <path d="M12 21.984c-1.125 0-2.016-0.891-2.016-1.969h3.984c0 1.164-0.872 1.969-1.969 1.969zM18 11.016v4.969l2.016 2.016v0.984h-16.031v-0.984l2.016-2.016v-4.969c0-3.094 1.641-5.625 4.5-6.328v-0.703c0-0.844 0.656-1.5 1.5-1.5s1.5 0.656 1.5 1.5v0.703c2.859 0.703 4.5 3.281 4.5 6.328zM19.969 10.5c-0.141-2.672-1.5-4.969-3.516-6.422l1.406-1.406c2.391 1.828 3.984 4.641 4.125 7.828h-2.016zM7.594 4.078c-2.063 1.453-3.422 3.75-3.563 6.422h-2.016c0.141-3.188 1.734-6 4.125-7.828z"></path>
    </symbol>

    <symbol id="pin" viewBox="0 0 24 24">
      <title>pin</title>
      <path d="M12 11.484c1.359 0 2.484-1.125 2.484-2.484s-1.125-2.484-2.484-2.484-2.484 1.125-2.484 2.484 1.125 2.484 2.484 2.484zM12 2.016c3.891 0 6.984 3.094 6.984 6.984 0 5.25-6.984 12.984-6.984 12.984s-6.984-7.734-6.984-12.984c0-3.891 3.094-6.984 6.984-6.984z"></path>
    </symbol>

    <symbol id="qed" viewBox="0 0 24 24">
      <title>qed</title>
      <path d="M17.766 5.484l5.438 6.516-5.438 6.516-1.547-1.266 4.359-5.25-4.359-5.25zM11.016 12.984v-1.969h1.969v1.969h-1.969zM17.016 11.016v1.969h-2.016v-1.969h2.016zM6.984 12.984v-1.969h2.016v1.969h-2.016zM7.781 6.75l-4.359 5.25 4.359 5.25-1.547 1.266-5.438-6.516 5.438-6.516z"></path>
    </symbol>
    
    <symbol id="refresh" viewBox="0 0 24 24">
      <title>refresh</title>
      <path d="M17.672 6.328l2.344-2.344v7.031h-7.031l3.234-3.234c-1.078-1.078-2.578-1.781-4.219-1.781-3.328 0-6 2.672-6 6s2.672 6 6 6c2.625 0 4.875-1.641 5.672-3.984h2.063c-0.891 3.469-3.984 6-7.734 6-4.406 0-7.969-3.609-7.969-8.016s3.563-8.016 7.969-8.016c2.203 0 4.219 0.891 5.672 2.344z"></path>
    </symbol>

    <symbol id="search" viewBox="0 0 24 24">
      <title>search</title>
      <path d="M9.516 14.016c2.484 0 4.5-2.016 4.5-4.5s-2.016-4.5-4.5-4.5-4.5 2.016-4.5 4.5 2.016 4.5 4.5 4.5zM15.516 14.016l4.969 4.969-1.5 1.5-4.969-4.969v-0.797l-0.281-0.281c-1.125 0.984-2.625 1.547-4.219 1.547-3.609 0-6.516-2.859-6.516-6.469s2.906-6.516 6.516-6.516 6.469 2.906 6.469 6.516c0 1.594-0.563 3.094-1.547 4.219l0.281 0.281h0.797z"></path>
    </symbol>

    <symbol id="star" viewBox="0 0 24 24">
      <title>star</title>
      <path d="M12 17.25l-6.188 3.75 1.641-7.031-5.438-4.734 7.172-0.609 2.813-6.609 2.813 6.609 7.172 0.609-5.438 4.734 1.641 7.031z"></path>
    </symbol>

    <symbol id="swap_horiz" viewBox="0 0 24 24">
      <title>swap_horiz</title>
      <path d="M21 9l-3.984 3.984v-3h-7.031v-1.969h7.031v-3zM6.984 11.016v3h7.031v1.969h-7.031v3l-3.984-3.984z"></path>
    </symbol>

    <symbol id="swap_vert" viewBox="0 0 24 24">
      <title>swap_vert</title>
      <path d="M9 3l3.984 3.984h-3v7.031h-1.969v-7.031h-3zM15.984 17.016h3l-3.984 3.984-3.984-3.984h3v-7.031h1.969v7.031z"></path>
    </symbol>

    <symbol id="sync" viewBox="0 0 24 24">
      <title>sync</title>
      <path d="M12 18v-3l3.984 3.984-3.984 4.031v-3c-4.406 0-8.016-3.609-8.016-8.016 0-1.547 0.469-3.047 1.266-4.266l1.453 1.453c-0.469 0.844-0.703 1.781-0.703 2.813 0 3.328 2.672 6 6 6zM12 3.984c4.406 0 8.016 3.609 8.016 8.016 0 1.547-0.469 3.047-1.266 4.266l-1.453-1.453c0.469-0.844 0.703-1.781 0.703-2.813 0-3.328-2.672-6-6-6v3l-3.984-3.984 3.984-4.031v3z"></path>
    </symbol>

  </defs>
</svg>
