<svg xmlns="http://www.w3.org/2000/svg" height="256" width="256"><g data-name="STYLE = COLOR"><path d="M228.768 16H91.232A11.232 11.232 0 0 0 80 27.232V40l77.52 24L240 40V27.232A11.232 11.232 0 0 0 228.768 16z" fill="#0364b8"/><path d="M253.2 139.24A90.728 90.728 0 0 0 256 128a5.328 5.328 0 0 0-2.664-4.608l-.104-.064-.032-.016-86.704-49.4a11.992 11.992 0 0 0-1.16-.656 12 12 0 0 0-10.672 0 11.92 11.92 0 0 0-1.16.656L66.8 123.32l-.032.016-.096.056A5.328 5.328 0 0 0 64 128a90.752 90.752 0 0 0 2.8 11.24l91.936 67.24z" fill="#0a2767"/><path d="M192 40h-56l-16.168 24L136 88l56 48h48V88z" fill="#28a8ea"/><path d="M80 40h56v48H80z" fill="#0078d4"/><path d="M192 40h48v48h-48z" fill="#50d9ff"/><path d="M192 136l-56-48H80v48l56 48 86.656 14.144z" fill="#0364b8"/><path d="M80.248 40H240" fill="none"/><path d="M136 88h56v48h-56z" fill="#0078d4"/><path d="M80 136h56v48H80z" fill="#064a8c"/><path d="M192 136h48v48h-48z" fill="#0078d4"/><path d="M161.52 201.744l-94.344-68.8 3.96-6.96s85.96 48.96 87.272 49.696a4.224 4.224 0 0 0 3.36-.096l87.464-49.84 3.968 6.952z" opacity=".5" fill="#0a2767"/><path d="M253.336 132.616l-.112.064-.024.016-86.704 49.392a11.976 11.976 0 0 1-11.68.728l30.192 40.488 66.032 14.376v.032A11.984 11.984 0 0 0 256 228V128a5.328 5.328 0 0 1-2.664 4.616z" fill="#1490df"/><path d="M256 228v-5.904l-79.864-45.504-9.64 5.496a11.976 11.976 0 0 1-11.68.728l30.192 40.488 66.032 14.376v.032A11.984 11.984 0 0 0 256 228z" opacity=".05"/><path d="M255.6 231.064L168.056 181.2l-1.56.88a11.976 11.976 0 0 1-11.68.736l30.192 40.488 66.032 14.376v.032a12.008 12.008 0 0 0 4.56-6.64z" opacity=".1"/><path d="M66.8 132.72v-.08h-.08l-.24-.16A5.2 5.2 0 0 1 64 128v100a11.984 11.984 0 0 0 12 12h168a12.024 12.024 0 0 0 2.96-.4 5.096 5.096 0 0 0 1.44-.48 1.136 1.136 0 0 0 .48-.16 8.384 8.384 0 0 0 1.84-1.04c.16-.08.24-.08.32-.24z" fill="#28a8ea"/><path d="M144 197.336V66.664A10.696 10.696 0 0 0 133.336 56H80.24v59.648l-13.44 7.664-.04.016-.096.056A5.328 5.328 0 0 0 64 128v.04-.04 80h69.336A10.696 10.696 0 0 0 144 197.336z" opacity=".1"/><path d="M136 205.336V74.664A10.696 10.696 0 0 0 125.336 64H80.24v51.648l-13.44 7.664-.04.016-.096.056A5.328 5.328 0 0 0 64 128v.04-.04 88h61.336A10.696 10.696 0 0 0 136 205.336z" opacity=".2"/><path d="M136 189.336V74.664A10.696 10.696 0 0 0 125.336 64H80.24v51.648l-13.44 7.664-.04.016-.096.056A5.328 5.328 0 0 0 64 128v.04-.04 72h61.336A10.696 10.696 0 0 0 136 189.336z" opacity=".2"/><path d="M128 189.336V74.664A10.696 10.696 0 0 0 117.336 64H80.24v51.648l-13.44 7.664-.04.016-.096.056A5.328 5.328 0 0 0 64 128v.04-.04 72h53.336A10.696 10.696 0 0 0 128 189.336z" opacity=".2"/><path d="M10.664 64h106.672A10.664 10.664 0 0 1 128 74.664v106.672A10.664 10.664 0 0 1 117.336 192H10.664A10.664 10.664 0 0 1 0 181.336V74.664A10.664 10.664 0 0 1 10.664 64z" data-name="Back Plate" fill="#0078d4"/><path d="M30.936 107.744a33.448 33.448 0 0 1 13.136-14.512A39.72 39.72 0 0 1 64.952 88a36.936 36.936 0 0 1 19.304 4.96 33.12 33.12 0 0 1 12.784 13.864 44.776 44.776 0 0 1 4.48 20.4 47.208 47.208 0 0 1-4.616 21.328 33.912 33.912 0 0 1-13.16 14.352A38.4 38.4 0 0 1 63.704 168a37.832 37.832 0 0 1-19.744-5.016 33.632 33.632 0 0 1-12.944-13.888 43.672 43.672 0 0 1-4.536-20.152 48.44 48.44 0 0 1 4.456-21.2zm14 34.064a21.728 21.728 0 0 0 7.384 9.552 19.288 19.288 0 0 0 11.544 3.48 20.264 20.264 0 0 0 12.328-3.592 20.824 20.824 0 0 0 7.176-9.576 37.008 37.008 0 0 0 2.288-13.32 40.504 40.504 0 0 0-2.16-13.488 21.352 21.352 0 0 0-6.928-9.92 19.096 19.096 0 0 0-12.216-3.784 19.944 19.944 0 0 0-11.816 3.512 21.928 21.928 0 0 0-7.552 9.624 38.208 38.208 0 0 0-.056 27.52z" fill="#fff"/><path d="M0 0h256v256H0z" fill="none"/></g></svg>