<svg xmlns="http://www.w3.org/2000/svg" height="256" width="256"><path d="M72.522 255.274c-.534-1.392.852-4.893 22.213-56.114 11.066-26.537 19.993-48.455 19.837-48.708-.158-.256-16.109-.46-35.933-.46-21.828 0-35.768-.193-35.956-.497-.168-.273 31.177-34.189 69.656-75.368C174.344 7.77 182.391-.657 183.085.037c.694.694-1.676 6.676-20.836 52.593-11.89 28.496-21.492 52.016-21.337 52.267.156.252 16.399.457 36.194.457 21.428 0 36.032.196 36.21.485.293.474-138.854 149.789-139.918 150.143-.294.098-.689-.22-.876-.708z" fill="#0077ce"/></svg>
